<?xml version="1.0" encoding="iso-8859-1"?>
<!-- Uploaded to: SVG Repo, www.svgrepo.com, Generator: SVG Repo Mixer Tools -->
<!DOCTYPE svg PUBLIC "-//W3C//DTD SVG 1.1//EN" "http://www.w3.org/Graphics/SVG/1.1/DTD/svg11.dtd">
<svg fill="#000000" version="1.1" id="Capa_1" xmlns="http://www.w3.org/2000/svg" xmlns:xlink="http://www.w3.org/1999/xlink" 
	 viewBox="0 0 428.997 428.997" xml:space="preserve">
<g>
	<path d="M423.711,124.791v-11.158h-15.856v-11.781c0-6.132-4.989-11.122-11.122-11.122h-36.196
		c-6.133,0-11.122,4.989-11.122,11.122v1.798h-52.447v0.007l-28.304-31.871V47.274h-13.024v5h8.024v13.883l-9.989-11.249h-43.061
		l-9.978,11.238V52.274h8.024v-5h-13.024v24.503l-21.961,24.734h-37.719V82.509h-54.33v14.002h-6.459v7.726H30.537v20.554H0V322.41
		h9.396v16.443h132.292c21.478,26.155,54.051,42.87,90.457,42.87s68.98-16.714,90.458-42.87h96.998V322.41h9.396V124.791H423.711z
		 M360.538,95.731h36.196c2.484,0,4.624,1.49,5.582,3.622h-47.361C355.914,97.221,358.053,95.731,360.538,95.731z M354.416,104.352
		h48.44v9.281h-48.44V104.352z M418.711,118.634v6.158H338.56v-6.158H418.711z M349.416,108.65v4.983H333.56v11.158h-24.506
		l-2.059-9.844l-5.592-6.297H349.416z M159.311,129.791h145.68l11.21,53.6c-21.287-21.997-51.1-35.697-84.056-35.697
		c-32.948,0-62.754,13.693-84.041,35.681L159.311,129.791z M144.809,174.708H134.21c1.101-1.702,1.748-3.724,1.748-5.898v-39.019
		h18.245L144.809,174.708z M160.357,124.791l1.293-6.182h141.002l1.293,6.182H160.357z M212.862,59.908h38.567l47.691,53.702
		H165.182L212.862,59.908z M86.628,87.509h44.33v9.002h-44.33V87.509z M80.168,101.511h89.069l-11.93,13.436l-2.059,9.844h-30.449
		v-3.396h7.777v-5h-7.777v-6.873H98.658v6.873h-7.777v5h7.777v3.396h-18.49V101.511z M124.799,169.724v-39.933h6.158v39.019
		c0,3.252-2.646,5.898-5.898,5.898H98.398c-3.252,0-5.898-2.646-5.898-5.898v-39.019h6.158v39.933H124.799z M119.799,121.395v43.329
		h-16.141v-43.329H119.799z M103.658,116.395v-1.873h16.141v1.873H103.658z M35.537,109.237h39.631v15.554H35.537V109.237z
		 M5,129.791h82.5v39.019c0,2.174,0.647,4.196,1.748,5.898H5V129.791z M5,179.708h93.398h26.661h18.703l-2.339,11.183
		c-2.8,3.435-5.414,7.026-7.816,10.767v-4.047H96.611V187.04H5V179.708z M115.965,278.652H96.611v-76.041h31.997v7.628
		c-8.599,16.279-13.478,34.813-13.478,54.469C115.131,269.427,115.419,274.078,115.965,278.652z M5,222.577h17.231
		c11.898,0,21.578,9.68,21.578,21.577c0,5.748-2.245,11.17-6.311,15.258c-4.097,4.075-9.519,6.32-15.267,6.32H5V222.577z M5,270.732
		h17.231c7.078,0,13.752-2.761,18.803-7.784c5.014-5.041,7.775-11.715,7.775-18.793c0-14.655-11.923-26.577-26.578-26.577H5V192.04
		h86.611v113.625H5V270.732z M5,317.41v-6.745h91.611v-27.014h20.061c1.954,11.954,5.723,23.305,11.019,33.759H5z M14.396,333.853
		V322.41h115.982c2.257,3.965,4.74,7.784,7.429,11.443H14.396z M232.145,376.723c-61.765,0-112.014-50.25-112.014-112.015
		c0-61.765,50.25-112.014,112.014-112.014c61.765,0,112.015,50.25,112.015,112.014C344.16,326.473,293.91,376.723,232.145,376.723z
		 M349.085,260.749h6.203v13.396h11.745v8.226h-11.745v13.311h-10.297c2.712-9.87,4.169-20.254,4.169-30.974
		C349.16,263.383,349.129,262.064,349.085,260.749z M360.288,268.975v-8.226h17.315v34.933h-17.315v-8.311h11.745v-18.396H360.288z
		 M322.882,190.911l-0.132-0.633h18.724c4.282,0,7.766,3.484,7.766,7.766v36.397c0,2.003-1.218,3.725-2.951,4.47
		C342.247,221.02,334.096,204.672,322.882,190.911z M414.601,333.853h-88.118c2.689-3.659,5.173-7.478,7.429-11.443h80.688V333.853z
		 M423.997,317.41H336.6c2.712-5.354,5.022-10.943,6.895-16.729h39.109v-44.933H348.82c-0.306-4.022-0.818-7.987-1.522-11.886
		c4.016-1.249,6.941-5,6.941-9.422v-2.032h3.7v-11.158h-3.7v-23.208c0-7.039-5.727-12.766-12.766-12.766h-19.769l-1.165-5.57
		h103.457V317.41z M423.997,174.708H319.494l-9.394-44.917h113.897V174.708z"/>
	<path d="M38.495,244.155c0-9.211-6.527-16.706-14.549-16.706s-14.549,7.494-14.549,16.706s6.527,16.706,14.549,16.706
		S38.495,253.366,38.495,244.155z M14.396,244.155c0-6.455,4.284-11.706,9.549-11.706s9.549,5.251,9.549,11.706
		s-4.284,11.706-9.549,11.706S14.396,250.609,14.396,244.155z"/>
	<path d="M232.145,180.969c-46.174,0-83.739,37.565-83.739,83.739s37.565,83.739,83.739,83.739s83.739-37.565,83.739-83.739
		S278.319,180.969,232.145,180.969z M232.145,343.448c-43.417,0-78.739-35.322-78.739-78.739c0-43.417,35.322-78.739,78.739-78.739
		c43.417,0,78.739,35.322,78.739,78.739C310.884,308.125,275.562,343.448,232.145,343.448z"/>
	<path d="M232.145,204.574c-33.158,0-60.134,26.976-60.134,60.134s26.976,60.134,60.134,60.134
		c33.158,0,60.134-26.976,60.134-60.134S265.303,204.574,232.145,204.574z M232.145,319.843c-30.401,0-55.134-24.733-55.134-55.134
		s24.733-55.134,55.134-55.134c30.401,0,55.134,24.733,55.134,55.134S262.546,319.843,232.145,319.843z"/>
	<path d="M253.62,224.188c-6.567-3.487-13.993-5.331-21.475-5.331c-1.381,0-2.5,1.119-2.5,2.5s1.119,2.5,2.5,2.5
		c6.667,0,13.283,1.641,19.13,4.747c0.374,0.198,0.774,0.292,1.17,0.292c0.895,0,1.761-0.482,2.21-1.328
		C255.303,226.349,254.84,224.836,253.62,224.188z"/>
	<path d="M267.947,236.062c-0.863-1.078-2.438-1.252-3.514-0.388c-1.078,0.863-1.251,2.437-0.388,3.514
		c5.856,7.31,8.951,16.134,8.951,25.521c0,12.165-5.367,23.612-14.725,31.405c-1.061,0.883-1.205,2.46-0.321,3.521
		c0.494,0.594,1.206,0.9,1.922,0.9c0.564,0,1.131-0.19,1.599-0.579c10.502-8.746,16.525-21.593,16.525-35.247
		C277.996,254.324,274.427,244.151,267.947,236.062z"/>
	<rect x="45.369" y="118.331" width="19.967" height="5"/>
	<path d="M354.852,167.375c7.854,0,14.245-6.39,14.245-14.245s-6.39-14.245-14.245-14.245c-7.855,0-14.245,6.39-14.245,14.245
		S346.997,167.375,354.852,167.375z M354.852,143.885c5.098,0,9.245,4.147,9.245,9.245s-4.147,9.245-9.245,9.245
		s-9.245-4.147-9.245-9.245S349.754,143.885,354.852,143.885z"/>
	<path d="M14.832,138.298c-1.381,0-2.5,1.119-2.5,2.5v25.252c0,1.381,1.119,2.5,2.5,2.5s2.5-1.119,2.5-2.5v-25.252
		C17.332,139.417,16.213,138.298,14.832,138.298z"/>
	<path d="M414.165,168.55c1.381,0,2.5-1.119,2.5-2.5v-25.252c0-1.381-1.119-2.5-2.5-2.5s-2.5,1.119-2.5,2.5v25.252
		C411.665,167.431,412.784,168.55,414.165,168.55z"/>
</g>
</svg>